<?xml version="1.0" encoding="UTF-8" standalone="no"?>
<!DOCTYPE svg PUBLIC "-//W3C//DTD SVG 1.1//EN" "http://www.w3.org/Graphics/SVG/1.1/DTD/svg11.dtd">
<svg width="100%" height="100%" viewBox="0 0 1063 1063" version="1.1" xmlns="http://www.w3.org/2000/svg" xmlns:xlink="http://www.w3.org/1999/xlink" xml:space="preserve" style="fill-rule:evenodd;clip-rule:evenodd;stroke-linejoin:round;stroke-miterlimit:1.41421;">
    <g id="Flask" transform="matrix(1,0,0,1,-708.661,-1244.44)">
        <path d="M1311.34,1584.31L1311.73,1584.32L1312.12,1584.33L1312.5,1584.35L1312.89,1584.37L1313.27,1584.4L1313.65,1584.43L1314.04,1584.47L1314.42,1584.51L1314.8,1584.55L1315.17,1584.6L1315.55,1584.66L1315.93,1584.72L1316.3,1584.78L1316.67,1584.85L1317.04,1584.93L1317.41,1585L1317.78,1585.09L1318.15,1585.17L1318.51,1585.27L1318.88,1585.36L1319.24,1585.46L1319.6,1585.57L1319.96,1585.67L1320.31,1585.79L1320.67,1585.9L1321.02,1586.03L1321.37,1586.15L1321.72,1586.28L1322.06,1586.42L1322.4,1586.55L1322.75,1586.7L1323.09,1586.84L1323.42,1586.99L1323.76,1587.15L1324.09,1587.3L1324.42,1587.47L1324.75,1587.63L1325.08,1587.8L1325.4,1587.97L1325.72,1588.15L1326.04,1588.33L1326.35,1588.52L1326.67,1588.7L1326.98,1588.89L1327.29,1589.09L1327.59,1589.29L1327.9,1589.49L1328.2,1589.7L1328.49,1589.9L1328.79,1590.12L1329.08,1590.33L1329.37,1590.55L1329.66,1590.78L1329.94,1591L1330.22,1591.23L1330.5,1591.46L1330.78,1591.7L1331.05,1591.94L1331.32,1592.18L1331.59,1592.43L1331.85,1592.67L1332.11,1592.93L1332.37,1593.18L1332.62,1593.44L1332.88,1593.7L1333.13,1593.96L1333.37,1594.23L1333.61,1594.5L1333.85,1594.77L1334.09,1595.05L1334.32,1595.33L1334.55,1595.61L1334.78,1595.89L1335,1596.18L1335.22,1596.47L1335.43,1596.76L1335.64,1597.06L1335.85,1597.35L1336.06,1597.66L1336.26,1597.96L1336.46,1598.26L1336.66,1598.57L1336.85,1598.88L1337.04,1599.2L1337.22,1599.51L1337.4,1599.83L1337.58,1600.15L1337.75,1600.48L1337.92,1600.8L1338.09,1601.13L1338.25,1601.46L1338.4,1601.79L1338.56,1602.13L1338.71,1602.47L1338.86,1602.8L1339,1603.15L1339.13,1603.49L1339.27,1603.84L1339.4,1604.18L1339.53,1604.53L1339.65,1604.89L1339.76,1605.24L1339.88,1605.6L1339.99,1605.95L1340.09,1606.31L1340.19,1606.67L1340.29,1607.04L1340.38,1607.4L1340.46,1607.77L1340.55,1608.14L1340.63,1608.51L1340.7,1608.88L1340.77,1609.25L1340.83,1609.63L1340.89,1610L1340.95,1610.38L1341,1610.76L1341.04,1611.13L1341.09,1611.52L1341.12,1611.9L1341.15,1612.28L1341.18,1612.66L1341.2,1613.05L1341.22,1613.43L1341.23,1613.82L1341.24,1614.21L1341.24,1614.56L1341.24,1614.64L1341.24,1614.97L1341.23,1615.35L1341.22,1615.72L1341.2,1616.09L1341.18,1616.47L1341.16,1616.84L1341.13,1617.21L1341.09,1617.58L1341.05,1617.95L1341.01,1618.32L1340.96,1618.68L1340.91,1619.05L1340.85,1619.42L1340.79,1619.78L1340.73,1620.15L1340.66,1620.51L1340.58,1620.87L1340.5,1621.23L1340.42,1621.59L1340.33,1621.95L1340.24,1622.31L1340.14,1622.66L1340.04,1623.02L1339.94,1623.37L1339.83,1623.72L1339.71,1624.07L1339.6,1624.42L1339.48,1624.76L1339.35,1625.11L1339.22,1625.45L1339.08,1625.8L1338.94,1626.14L1338.8,1626.47L1338.66,1626.81L1338.51,1627.15L1338.35,1627.48L1338.19,1627.81L1338.03,1628.14L1337.86,1628.47L1337.69,1628.79L1337.51,1629.12L1337.34,1629.44L1337.15,1629.76L1336.96,1630.08L1336.77,1630.39L1336.58,1630.7L1336.38,1631.02L1336.17,1631.32L1335.97,1631.63L1335.76,1631.93L1335.54,1632.24L1335.33,1632.53L1335.1,1632.83L1334.88,1633.12L1334.65,1633.42L1334.41,1633.7L1334.18,1633.99L1333.93,1634.27L1333.69,1634.55L1333.44,1634.83L1333.19,1635.11L1332.93,1635.38L1332.67,1635.65L1332.41,1635.92L1332.14,1636.18L1331.88,1636.44L1331.6,1636.69L1331.33,1636.94L1331.05,1637.19L1330.77,1637.44L1330.49,1637.68L1330.2,1637.92L1329.91,1638.15L1329.62,1638.38L1329.33,1638.61L1329.03,1638.83L1328.73,1639.05L1328.43,1639.26L1328.13,1639.47L1327.82,1639.68L1327.51,1639.88L1327.2,1640.08L1326.89,1640.28L1326.57,1640.47L1326.26,1640.65L1325.94,1640.84L1325.61,1641.02L1325.29,1641.19L1324.96,1641.36L1324.64,1641.53L1324.31,1641.69L1323.98,1641.85L1323.64,1642.01L1323.59,1642.03L1323.59,1791.55L1564.13,2159L1564.29,2159.24L1564.46,2159.5L1564.62,2159.75L1564.78,2160.01L1564.94,2160.26L1565.11,2160.52L1565.26,2160.78L1565.42,2161.04L1565.58,2161.3L1565.73,2161.56L1565.89,2161.82L1566.04,2162.08L1566.19,2162.34L1566.34,2162.6L1566.49,2162.86L1566.64,2163.13L1566.79,2163.39L1566.93,2163.65L1567.08,2163.92L1567.22,2164.18L1567.36,2164.45L1567.5,2164.71L1567.64,2164.98L1567.78,2165.24L1567.92,2165.51L1568.06,2165.78L1568.19,2166.05L1568.32,2166.31L1568.46,2166.58L1568.59,2166.85L1568.72,2167.12L1568.85,2167.39L1568.97,2167.66L1569.1,2167.93L1569.23,2168.21L1569.35,2168.48L1569.47,2168.75L1569.6,2169.02L1569.72,2169.3L1569.84,2169.57L1569.95,2169.84L1570.07,2170.12L1570.19,2170.39L1570.3,2170.67L1570.41,2170.94L1570.53,2171.22L1570.64,2171.49L1570.75,2171.77L1570.86,2172.05L1570.96,2172.32L1571.07,2172.61L1571.17,2172.88L1571.28,2173.16L1571.38,2173.44L1571.48,2173.72L1571.58,2174L1571.68,2174.28L1571.78,2174.56L1571.88,2174.84L1571.97,2175.12L1572.06,2175.4L1572.16,2175.68L1572.25,2175.96L1572.34,2176.24L1572.43,2176.53L1572.52,2176.81L1572.6,2177.09L1572.69,2177.37L1572.77,2177.66L1572.86,2177.94L1572.94,2178.23L1573.02,2178.51L1573.1,2178.79L1573.18,2179.08L1573.26,2179.36L1573.33,2179.65L1573.4,2179.93L1573.48,2180.22L1573.55,2180.51L1573.62,2180.79L1573.69,2181.08L1573.76,2181.37L1573.83,2181.65L1573.89,2181.94L1573.96,2182.23L1574.02,2182.51L1574.09,2182.8L1574.15,2183.09L1574.21,2183.38L1574.27,2183.67L1574.33,2183.96L1574.38,2184.24L1574.44,2184.53L1574.49,2184.82L1574.54,2185.11L1574.6,2185.4L1574.65,2185.69L1574.7,2185.98L1574.74,2186.27L1574.79,2186.56L1574.84,2186.85L1574.88,2187.14L1574.92,2187.43L1574.97,2187.72L1575.01,2188.01L1575.05,2188.3L1575.09,2188.6L1575.12,2188.89L1575.16,2189.18L1575.19,2189.47L1575.23,2189.76L1575.26,2190.06L1575.29,2190.35L1575.32,2190.64L1575.35,2190.93L1575.38,2191.22L1575.4,2191.52L1575.43,2191.81L1575.45,2192.1L1575.48,2192.39L1575.5,2192.69L1575.52,2192.98L1575.54,2193.27L1575.55,2193.57L1575.57,2193.86L1575.59,2194.15L1575.6,2194.45L1575.61,2194.74L1575.62,2195.03L1575.63,2195.33L1575.64,2195.62L1575.65,2195.91L1575.66,2196.21L1575.66,2196.5L1575.67,2196.79L1575.67,2197.09L1575.67,2197.38L1575.67,2197.67L1575.67,2197.97L1575.67,2198.26L1575.67,2198.55L1575.67,2198.85L1575.66,2199.14L1575.65,2199.43L1575.65,2199.73L1575.64,2200.02L1575.63,2200.32L1575.62,2200.61L1575.6,2200.9L1575.59,2201.19L1575.57,2201.49L1575.56,2201.78L1575.54,2202.08L1575.52,2202.37L1575.5,2202.66L1575.48,2202.95L1575.46,2203.25L1575.43,2203.54L1575.41,2203.83L1575.38,2204.13L1575.36,2204.42L1575.33,2204.71L1575.3,2205.01L1575.27,2205.3L1575.24,2205.59L1575.2,2205.88L1575.17,2206.18L1575.13,2206.47L1575.09,2206.76L1575.06,2207.05L1575.02,2207.34L1574.98,2207.64L1574.93,2207.93L1574.89,2208.22L1574.85,2208.51L1574.8,2208.8L1574.75,2209.09L1574.7,2209.39L1574.66,2209.67L1574.61,2209.97L1574.55,2210.26L1574.5,2210.55L1574.45,2210.84L1574.39,2211.13L1574.33,2211.42L1574.28,2211.71L1574.22,2212L1574.16,2212.29L1574.1,2212.58L1574.03,2212.86L1573.97,2213.15L1573.9,2213.44L1573.84,2213.73L1573.77,2214.02L1573.7,2214.31L1573.63,2214.59L1573.56,2214.88L1573.49,2215.17L1573.41,2215.46L1573.34,2215.74L1573.26,2216.03L1573.18,2216.32L1573.11,2216.6L1573.03,2216.89L1572.94,2217.18L1572.86,2217.46L1572.78,2217.75L1572.69,2218.03L1572.61,2218.32L1572.52,2218.6L1572.43,2218.88L1572.34,2219.17L1572.25,2219.45L1572.16,2219.74L1572.06,2220.02L1571.97,2220.3L1571.87,2220.59L1571.78,2220.87L1571.68,2221.15L1571.58,2221.43L1571.48,2221.71L1571.37,2221.99L1571.27,2222.27L1571.17,2222.55L1571.06,2222.83L1570.95,2223.11L1570.85,2223.39L1570.74,2223.67L1570.63,2223.95L1570.51,2224.23L1570.4,2224.51L1570.29,2224.78L1570.17,2225.06L1570.05,2225.34L1569.93,2225.62L1569.82,2225.89L1569.69,2226.17L1569.57,2226.44L1569.45,2226.72L1569.33,2226.99L1569.2,2227.26L1569.07,2227.54L1568.94,2227.81L1568.82,2228.09L1568.68,2228.36L1568.55,2228.63L1568.42,2228.9L1568.29,2229.18L1568.15,2229.45L1568.02,2229.72L1567.88,2229.99L1567.74,2230.25L1567.6,2230.52L1567.46,2230.79L1567.31,2231.06L1567.17,2231.33L1567.02,2231.6L1566.88,2231.86L1566.73,2232.13L1566.58,2232.39L1566.43,2232.66L1566.28,2232.92L1566.13,2233.18L1565.98,2233.44L1565.83,2233.7L1565.67,2233.96L1565.52,2234.22L1565.36,2234.48L1565.2,2234.74L1565.04,2235L1564.88,2235.25L1564.72,2235.51L1564.56,2235.76L1564.4,2236.01L1564.23,2236.27L1564.07,2236.52L1563.9,2236.77L1563.74,2237.02L1563.57,2237.27L1563.4,2237.52L1563.23,2237.77L1563.06,2238.01L1562.89,2238.26L1562.72,2238.5L1562.54,2238.75L1562.37,2238.99L1562.19,2239.24L1562.02,2239.48L1561.84,2239.72L1561.66,2239.96L1561.48,2240.2L1561.3,2240.44L1561.12,2240.67L1560.94,2240.91L1560.76,2241.15L1560.57,2241.38L1560.39,2241.62L1560.2,2241.85L1560.02,2242.08L1559.83,2242.31L1559.64,2242.55L1559.45,2242.77L1559.26,2243L1559.07,2243.23L1558.88,2243.46L1558.68,2243.68L1558.49,2243.91L1558.3,2244.14L1558.1,2244.36L1557.9,2244.58L1557.71,2244.8L1557.51,2245.02L1557.31,2245.24L1557.11,2245.46L1556.91,2245.68L1556.71,2245.9L1556.51,2246.11L1556.3,2246.33L1556.1,2246.55L1555.89,2246.76L1555.69,2246.97L1555.48,2247.18L1555.27,2247.39L1555.07,2247.6L1554.86,2247.81L1554.64,2248.02L1554.43,2248.23L1554.22,2248.43L1554.01,2248.64L1553.8,2248.84L1553.58,2249.05L1553.37,2249.25L1553.15,2249.45L1552.94,2249.65L1552.72,2249.85L1552.5,2250.05L1552.28,2250.25L1552.06,2250.45L1551.84,2250.64L1551.62,2250.84L1551.4,2251.03L1551.18,2251.22L1550.95,2251.41L1550.73,2251.61L1550.51,2251.8L1550.28,2251.98L1550.05,2252.17L1549.83,2252.36L1549.6,2252.55L1549.37,2252.73L1549.14,2252.92L1548.91,2253.1L1548.68,2253.28L1548.45,2253.46L1548.22,2253.64L1547.98,2253.82L1547.75,2254L1547.51,2254.18L1547.28,2254.35L1547.04,2254.53L1546.81,2254.7L1546.57,2254.88L1546.33,2255.05L1546.09,2255.22L1545.85,2255.39L1545.61,2255.56L1545.37,2255.73L1545.13,2255.9L1544.89,2256.06L1544.65,2256.23L1544.4,2256.39L1544.16,2256.55L1543.91,2256.72L1543.67,2256.88L1543.42,2257.04L1543.18,2257.2L1542.93,2257.36L1542.68,2257.51L1542.43,2257.67L1542.18,2257.82L1541.93,2257.98L1541.68,2258.13L1541.43,2258.28L1541.18,2258.43L1540.93,2258.58L1540.67,2258.73L1540.42,2258.88L1540.17,2259.03L1539.91,2259.17L1539.66,2259.32L1539.4,2259.46L1539.14,2259.6L1538.89,2259.74L1538.63,2259.88L1538.37,2260.02L1538.11,2260.16L1537.85,2260.3L1537.59,2260.43L1537.33,2260.57L1537.07,2260.7L1536.81,2260.84L1536.55,2260.97L1536.28,2261.1L1536.02,2261.23L1535.75,2261.36L1535.49,2261.48L1535.22,2261.61L1534.96,2261.73L1534.69,2261.86L1534.42,2261.98L1534.16,2262.1L1533.89,2262.22L1533.62,2262.34L1533.35,2262.46L1533.08,2262.58L1532.81,2262.7L1532.54,2262.81L1532.27,2262.93L1532,2263.04L1531.73,2263.15L1531.45,2263.26L1531.18,2263.37L1530.91,2263.48L1530.63,2263.59L1530.36,2263.69L1530.08,2263.8L1529.81,2263.9L1529.53,2264.01L1529.25,2264.11L1528.98,2264.21L1528.7,2264.31L1528.42,2264.41L1528.14,2264.5L1527.87,2264.6L1527.59,2264.69L1527.31,2264.79L1527.02,2264.88L1526.75,2264.97L1526.46,2265.06L1526.18,2265.15L1525.9,2265.24L1525.62,2265.33L1525.34,2265.41L1525.05,2265.5L1524.77,2265.58L1524.48,2265.66L1524.2,2265.74L1523.91,2265.82L1523.63,2265.9L1523.34,2265.98L1523.06,2266.06L1522.77,2266.13L1522.48,2266.21L1522.19,2266.28L1521.91,2266.35L1521.62,2266.42L1521.33,2266.49L1521.04,2266.56L1520.75,2266.63L1520.46,2266.69L1520.17,2266.76L1519.88,2266.82L1519.59,2266.88L1519.3,2266.94L1519.01,2267L1518.72,2267.06L1518.42,2267.12L1518.13,2267.17L1517.84,2267.23L1517.55,2267.28L1517.25,2267.33L1516.96,2267.39L1516.66,2267.43L1516.37,2267.48L1516.08,2267.53L1515.78,2267.58L1515.48,2267.62L1515.19,2267.66L1514.89,2267.71L1514.6,2267.75L1514.3,2267.79L1514,2267.83L1513.71,2267.87L1513.41,2267.9L1513.11,2267.94L1512.81,2267.97L1512.51,2268L1512.21,2268.03L1511.92,2268.07L1511.62,2268.09L1511.32,2268.12L1511.02,2268.15L1510.72,2268.17L1510.42,2268.2L1510.12,2268.22L1509.82,2268.24L1509.52,2268.26L1509.21,2268.28L1508.91,2268.3L1508.61,2268.31L1508.31,2268.33L1508.01,2268.34L1507.71,2268.35L1507.4,2268.36L1507.1,2268.37L1506.8,2268.38L1506.5,2268.39L1506.19,2268.39L1505.89,2268.4L1505.59,2268.4L1505.28,2268.41L1504.99,2268.41L975.684,2268.41L975.392,2268.41L975.089,2268.4L974.785,2268.4L974.48,2268.39L974.179,2268.39L973.877,2268.38L973.574,2268.37L973.269,2268.36L972.968,2268.35L972.667,2268.34L972.363,2268.33L972.062,2268.31L971.761,2268.3L971.459,2268.28L971.158,2268.26L970.858,2268.24L970.558,2268.22L970.256,2268.2L969.956,2268.17L969.658,2268.15L969.357,2268.12L969.058,2268.09L968.759,2268.07L968.459,2268.03L968.162,2268L967.864,2267.97L967.565,2267.94L967.267,2267.9L966.97,2267.87L966.674,2267.83L966.376,2267.79L966.079,2267.75L965.783,2267.71L965.488,2267.67L965.191,2267.62L964.896,2267.58L964.602,2267.53L964.306,2267.48L964.012,2267.43L963.718,2267.39L963.424,2267.33L963.13,2267.28L962.837,2267.23L962.545,2267.17L962.252,2267.12L961.96,2267.06L961.667,2267L961.377,2266.94L961.086,2266.88L960.795,2266.82L960.504,2266.76L960.214,2266.69L959.925,2266.63L959.636,2266.56L959.348,2266.49L959.059,2266.42L958.77,2266.35L958.482,2266.28L958.196,2266.21L957.909,2266.13L957.621,2266.06L957.334,2265.98L957.051,2265.9L956.765,2265.83L956.478,2265.74L956.195,2265.66L955.911,2265.58L955.627,2265.5L955.344,2265.41L955.062,2265.33L954.779,2265.24L954.496,2265.15L954.214,2265.06L953.935,2264.97L953.654,2264.88L953.373,2264.79L953.093,2264.7L952.815,2264.6L952.536,2264.51L952.256,2264.41L951.979,2264.31L951.703,2264.21L951.424,2264.11L951.148,2264.01L950.873,2263.91L950.595,2263.8L950.321,2263.7L950.048,2263.59L949.773,2263.48L949.499,2263.37L949.226,2263.26L948.953,2263.15L948.682,2263.04L948.41,2262.93L948.139,2262.81L947.868,2262.7L947.598,2262.58L947.328,2262.47L947.059,2262.35L946.792,2262.23L946.523,2262.11L946.255,2261.98L945.989,2261.86L945.722,2261.74L945.457,2261.61L945.191,2261.49L944.927,2261.36L944.663,2261.23L944.399,2261.1L944.136,2260.97L943.874,2260.84L943.612,2260.71L943.351,2260.57L943.09,2260.44L942.83,2260.3L942.57,2260.16L942.311,2260.03L942.053,2259.89L941.795,2259.75L941.537,2259.61L941.282,2259.46L941.025,2259.32L940.769,2259.18L940.515,2259.03L940.261,2258.88L940.008,2258.74L939.754,2258.59L939.502,2258.44L939.25,2258.29L938.998,2258.14L938.749,2257.98L938.499,2257.83L938.248,2257.67L938.001,2257.52L937.753,2257.36L937.505,2257.2L937.259,2257.04L937.013,2256.88L936.767,2256.72L936.522,2256.56L936.279,2256.4L936.036,2256.23L935.793,2256.07L935.55,2255.9L935.309,2255.73L935.069,2255.57L934.829,2255.4L934.59,2255.23L934.351,2255.06L934.112,2254.88L933.876,2254.71L933.64,2254.54L933.403,2254.36L933.168,2254.18L932.935,2254.01L932.701,2253.83L932.467,2253.65L932.236,2253.47L932.004,2253.29L931.772,2253.11L931.543,2252.92L931.314,2252.74L931.084,2252.55L930.857,2252.37L930.63,2252.18L930.404,2251.99L930.177,2251.8L929.952,2251.61L929.729,2251.42L929.506,2251.23L929.283,2251.04L929.061,2250.84L928.84,2250.65L928.619,2250.45L928.401,2250.26L928.181,2250.06L927.963,2249.86L927.746,2249.66L927.53,2249.46L927.314,2249.26L927.1,2249.06L926.886,2248.85L926.672,2248.65L926.46,2248.44L926.248,2248.24L926.038,2248.03L925.828,2247.82L925.619,2247.61L925.41,2247.4L925.203,2247.19L924.996,2246.98L924.791,2246.77L924.585,2246.55L924.381,2246.34L924.178,2246.13L923.975,2245.91L923.774,2245.69L923.573,2245.47L923.374,2245.26L923.175,2245.03L922.976,2244.81L922.779,2244.59L922.583,2244.37L922.387,2244.15L922.193,2243.92L921.998,2243.7L921.806,2243.47L921.614,2243.24L921.423,2243.01L921.233,2242.79L921.043,2242.56L920.855,2242.33L920.667,2242.1L920.48,2241.86L920.295,2241.63L920.11,2241.39L919.927,2241.16L919.744,2240.92L919.561,2240.69L919.381,2240.45L919.201,2240.21L919.021,2239.97L918.843,2239.73L918.666,2239.49L918.489,2239.25L918.314,2239.01L918.14,2238.76L917.966,2238.52L917.794,2238.27L917.623,2238.03L917.451,2237.78L917.282,2237.53L917.114,2237.28L916.946,2237.04L916.779,2236.78L916.613,2236.53L916.449,2236.28L916.285,2236.03L916.123,2235.78L915.961,2235.52L915.8,2235.27L915.64,2235.01L915.482,2234.75L915.324,2234.5L915.168,2234.24L915.012,2233.98L914.858,2233.72L914.704,2233.46L914.551,2233.2L914.4,2232.93L914.249,2232.67L914.1,2232.41L913.952,2232.14L913.805,2231.88L913.658,2231.61L913.513,2231.35L913.37,2231.08L913.227,2230.81L913.085,2230.54L912.945,2230.27L912.806,2230L912.668,2229.73L912.531,2229.46L912.396,2229.19L912.262,2228.92L912.128,2228.65L911.997,2228.38L911.866,2228.11L911.737,2227.83L911.609,2227.56L911.482,2227.28L911.357,2227.01L911.232,2226.74L911.11,2226.46L910.987,2226.19L910.867,2225.91L910.747,2225.64L910.629,2225.36L910.512,2225.08L910.396,2224.8L910.282,2224.53L910.169,2224.25L910.057,2223.97L909.946,2223.69L909.836,2223.41L909.728,2223.14L909.621,2222.85L909.515,2222.57L909.41,2222.29L909.307,2222.01L909.205,2221.73L909.104,2221.45L909.004,2221.17L908.905,2220.89L908.808,2220.61L908.712,2220.32L908.617,2220.04L908.524,2219.76L908.431,2219.47L908.34,2219.19L908.25,2218.91L908.161,2218.62L908.074,2218.34L907.988,2218.05L907.903,2217.77L907.819,2217.48L907.737,2217.2L907.655,2216.91L907.575,2216.63L907.496,2216.34L907.419,2216.05L907.342,2215.77L907.267,2215.48L907.193,2215.19L907.121,2214.91L907.049,2214.62L906.979,2214.33L906.91,2214.04L906.842,2213.76L906.776,2213.47L906.71,2213.18L906.646,2212.89L906.583,2212.6L906.521,2212.31L906.461,2212.02L906.402,2211.73L906.344,2211.44L906.287,2211.15L906.232,2210.86L906.177,2210.57L906.124,2210.28L906.072,2209.99L906.022,2209.7L905.972,2209.41L905.924,2209.12L905.877,2208.83L905.832,2208.54L905.787,2208.24L905.744,2207.95L905.702,2207.66L905.661,2207.37L905.621,2207.08L905.583,2206.79L905.546,2206.49L905.51,2206.2L905.475,2205.91L905.442,2205.62L905.409,2205.33L905.378,2205.03L905.348,2204.74L905.32,2204.45L905.292,2204.15L905.266,2203.86L905.241,2203.57L905.218,2203.28L905.195,2202.98L905.174,2202.69L905.154,2202.4L905.135,2202.1L905.117,2201.81L905.101,2201.52L905.086,2201.22L905.072,2200.93L905.059,2200.64L905.047,2200.34L905.037,2200.05L905.028,2199.76L905.02,2199.46L905.013,2199.17L905.008,2198.88L905.004,2198.58L905.001,2198.29L904.999,2197.99L904.998,2197.7L904.999,2197.41L905.001,2197.11L905.004,2196.82L905.008,2196.53L905.014,2196.23L905.021,2195.94L905.029,2195.65L905.038,2195.35L905.048,2195.06L905.06,2194.77L905.073,2194.47L905.087,2194.18L905.102,2193.89L905.118,2193.6L905.136,2193.3L905.155,2193.01L905.175,2192.72L905.196,2192.42L905.219,2192.13L905.243,2191.84L905.267,2191.55L905.294,2191.25L905.321,2190.96L905.35,2190.67L905.379,2190.38L905.41,2190.09L905.443,2189.79L905.476,2189.5L905.511,2189.21L905.547,2188.92L905.584,2188.63L905.622,2188.34L905.662,2188.05L905.702,2187.76L905.744,2187.46L905.787,2187.17L905.832,2186.88L905.877,2186.59L905.924,2186.3L905.972,2186.01L906.021,2185.72L906.072,2185.43L906.123,2185.14L906.176,2184.85L906.23,2184.57L906.286,2184.28L906.342,2183.99L906.4,2183.7L906.459,2183.41L906.519,2183.12L906.58,2182.83L906.643,2182.55L906.706,2182.26L906.771,2181.97L906.837,2181.68L906.905,2181.4L906.973,2181.11L907.043,2180.82L907.114,2180.54L907.186,2180.25L907.26,2179.97L907.334,2179.68L907.41,2179.4L907.487,2179.11L907.565,2178.83L907.645,2178.54L907.725,2178.26L907.807,2177.97L907.89,2177.69L907.975,2177.41L908.06,2177.12L908.147,2176.84L908.235,2176.56L908.324,2176.28L908.414,2175.99L908.506,2175.71L908.598,2175.43L908.692,2175.15L908.787,2174.87L908.883,2174.59L908.981,2174.31L909.08,2174.03L909.18,2173.75L909.281,2173.47L909.384,2173.19L909.487,2172.91L909.592,2172.64L909.698,2172.36L909.805,2172.08L909.913,2171.8L910.023,2171.53L910.134,2171.25L910.246,2170.98L910.359,2170.7L910.473,2170.43L910.589,2170.15L910.706,2169.88L910.823,2169.6L910.942,2169.33L911.063,2169.06L911.185,2168.78L911.307,2168.51L911.432,2168.24L911.557,2167.97L911.683,2167.7L911.811,2167.43L911.939,2167.16L912.069,2166.89L912.201,2166.62L912.333,2166.35L912.467,2166.08L912.601,2165.81L912.737,2165.55L912.875,2165.28L913.013,2165.01L913.152,2164.75L913.293,2164.48L913.435,2164.21L913.579,2163.95L913.723,2163.69L913.868,2163.42L914.015,2163.16L914.163,2162.89L914.312,2162.63L914.462,2162.37L914.614,2162.11L914.767,2161.85L914.92,2161.59L915.075,2161.33L915.232,2161.07L915.389,2160.81L915.548,2160.55L915.707,2160.3L915.868,2160.04L916.031,2159.78L916.194,2159.53L916.359,2159.27L916.517,2159.03L1156.79,1791.55L1156.79,1642.06L1156.68,1642.01L1156.35,1641.85L1156.02,1641.69L1155.69,1641.53L1155.36,1641.36L1155.04,1641.19L1154.71,1641.02L1154.39,1640.84L1154.07,1640.65L1153.75,1640.47L1153.44,1640.27L1153.13,1640.08L1152.81,1639.88L1152.51,1639.68L1152.2,1639.47L1151.89,1639.26L1151.59,1639.04L1151.29,1638.83L1151,1638.6L1150.7,1638.38L1150.41,1638.15L1150.12,1637.91L1149.84,1637.67L1149.55,1637.43L1149.27,1637.19L1148.99,1636.94L1148.72,1636.69L1148.45,1636.43L1148.18,1636.17L1147.91,1635.91L1147.65,1635.64L1147.39,1635.37L1147.13,1635.1L1146.88,1634.83L1146.63,1634.55L1146.38,1634.27L1146.14,1633.98L1145.91,1633.7L1145.67,1633.41L1145.44,1633.12L1145.22,1632.82L1144.99,1632.53L1144.78,1632.23L1144.56,1631.92L1144.35,1631.62L1144.14,1631.31L1143.94,1631.01L1143.74,1630.69L1143.55,1630.38L1143.35,1630.07L1143.17,1629.75L1142.98,1629.43L1142.8,1629.11L1142.63,1628.78L1142.46,1628.46L1142.29,1628.13L1142.13,1627.8L1141.97,1627.47L1141.81,1627.13L1141.66,1626.8L1141.51,1626.46L1141.37,1626.12L1141.23,1625.78L1141.1,1625.44L1140.97,1625.09L1140.84,1624.75L1140.72,1624.4L1140.6,1624.05L1140.49,1623.7L1140.38,1623.35L1140.27,1623L1140.17,1622.64L1140.08,1622.29L1139.99,1621.93L1139.9,1621.57L1139.81,1621.21L1139.73,1620.85L1139.66,1620.49L1139.59,1620.13L1139.52,1619.76L1139.46,1619.4L1139.4,1619.03L1139.35,1618.66L1139.31,1618.3L1139.26,1617.93L1139.22,1617.56L1139.19,1617.19L1139.16,1616.82L1139.13,1616.45L1139.11,1616.07L1139.1,1615.7L1139.08,1615.33L1139.08,1614.95L1139.08,1614.62L1139.08,1614.44L1139.08,1614.09L1139.08,1613.7L1139.1,1613.32L1139.11,1612.94L1139.13,1612.55L1139.16,1612.17L1139.19,1611.79L1139.23,1611.41L1139.27,1611.03L1139.32,1610.65L1139.37,1610.28L1139.42,1609.9L1139.48,1609.53L1139.55,1609.15L1139.61,1608.78L1139.69,1608.41L1139.77,1608.04L1139.85,1607.68L1139.93,1607.31L1140.03,1606.95L1140.12,1606.59L1140.22,1606.23L1140.32,1605.87L1140.43,1605.51L1140.55,1605.16L1140.66,1604.81L1140.78,1604.45L1140.91,1604.11L1141.04,1603.76L1141.17,1603.41L1141.31,1603.07L1141.45,1602.73L1141.6,1602.39L1141.75,1602.06L1141.9,1601.72L1142.06,1601.39L1142.22,1601.06L1142.38,1600.74L1142.55,1600.41L1142.72,1600.09L1142.9,1599.77L1143.08,1599.45L1143.26,1599.14L1143.45,1598.83L1143.64,1598.52L1143.84,1598.21L1144.03,1597.9L1144.23,1597.6L1144.44,1597.3L1144.65,1597.01L1144.86,1596.71L1145.07,1596.42L1145.29,1596.13L1145.51,1595.85L1145.74,1595.56L1145.97,1595.28L1146.2,1595.01L1146.43,1594.73L1146.67,1594.46L1146.91,1594.19L1147.16,1593.93L1147.41,1593.66L1147.66,1593.4L1147.91,1593.15L1148.17,1592.89L1148.43,1592.64L1148.69,1592.39L1148.95,1592.15L1149.23,1591.91L1149.5,1591.67L1149.77,1591.44L1150.05,1591.2L1150.33,1590.98L1150.61,1590.75L1150.9,1590.53L1151.18,1590.31L1151.48,1590.1L1151.77,1589.88L1152.07,1589.67L1152.37,1589.47L1152.67,1589.27L1152.97,1589.07L1153.28,1588.88L1153.59,1588.69L1153.9,1588.5L1154.22,1588.32L1154.53,1588.14L1154.85,1587.96L1155.18,1587.79L1155.5,1587.62L1155.83,1587.45L1156.16,1587.29L1156.49,1587.13L1156.82,1586.98L1157.16,1586.83L1157.5,1586.69L1157.84,1586.55L1158.18,1586.41L1158.52,1586.27L1158.87,1586.14L1159.22,1586.02L1159.57,1585.9L1159.92,1585.78L1160.28,1585.67L1160.63,1585.56L1160.99,1585.46L1161.35,1585.36L1161.71,1585.26L1162.08,1585.17L1162.44,1585.08L1162.81,1585L1163.17,1584.92L1163.55,1584.85L1163.92,1584.78L1164.29,1584.72L1164.66,1584.66L1165.04,1584.6L1165.42,1584.55L1165.79,1584.51L1166.17,1584.47L1166.55,1584.43L1166.93,1584.4L1167.32,1584.37L1167.7,1584.35L1168.08,1584.33L1168.47,1584.32L1168.86,1584.31L1169.2,1584.31L1310.99,1584.31L1311.34,1584.31ZM1169.28,1609.31L1169.17,1609.31L1169.1,1609.31L1169.03,1609.32L1168.96,1609.32L1168.9,1609.32L1168.83,1609.33L1168.76,1609.33L1168.7,1609.34L1168.63,1609.35L1168.57,1609.35L1168.5,1609.36L1168.44,1609.37L1168.38,1609.38L1168.31,1609.39L1168.25,1609.4L1168.19,1609.42L1168.13,1609.43L1168.06,1609.44L1168,1609.46L1167.94,1609.47L1167.88,1609.49L1167.82,1609.51L1167.76,1609.52L1167.7,1609.54L1167.64,1609.56L1167.58,1609.58L1167.52,1609.6L1167.47,1609.62L1167.41,1609.64L1167.35,1609.66L1167.29,1609.69L1167.23,1609.71L1167.18,1609.74L1167.12,1609.76L1167.06,1609.79L1167.01,1609.81L1166.95,1609.84L1166.9,1609.87L1166.84,1609.9L1166.79,1609.93L1166.73,1609.96L1166.68,1609.99L1166.63,1610.02L1166.57,1610.05L1166.52,1610.08L1166.47,1610.12L1166.41,1610.15L1166.36,1610.19L1166.31,1610.22L1166.26,1610.26L1166.21,1610.29L1166.16,1610.33L1166.11,1610.37L1166.06,1610.41L1166.01,1610.45L1165.96,1610.49L1165.91,1610.53L1165.86,1610.57L1165.82,1610.61L1165.77,1610.65L1165.72,1610.69L1165.68,1610.74L1165.63,1610.78L1165.59,1610.82L1165.54,1610.87L1165.5,1610.91L1165.46,1610.96L1165.41,1611.01L1165.37,1611.05L1165.33,1611.1L1165.29,1611.15L1165.25,1611.2L1165.21,1611.25L1165.17,1611.29L1165.13,1611.34L1165.1,1611.39L1165.06,1611.44L1165.02,1611.5L1164.99,1611.55L1164.95,1611.6L1164.91,1611.65L1164.88,1611.7L1164.85,1611.75L1164.82,1611.81L1164.78,1611.86L1164.75,1611.91L1164.72,1611.97L1164.69,1612.02L1164.66,1612.08L1164.63,1612.13L1164.61,1612.19L1164.58,1612.24L1164.55,1612.3L1164.53,1612.36L1164.5,1612.41L1164.48,1612.47L1164.45,1612.53L1164.43,1612.59L1164.41,1612.64L1164.38,1612.7L1164.36,1612.76L1164.34,1612.82L1164.32,1612.88L1164.31,1612.94L1164.29,1613L1164.27,1613.06L1164.25,1613.12L1164.24,1613.18L1164.22,1613.24L1164.21,1613.3L1164.19,1613.36L1164.18,1613.42L1164.17,1613.49L1164.16,1613.55L1164.14,1613.61L1164.13,1613.67L1164.13,1613.74L1164.12,1613.8L1164.11,1613.87L1164.1,1613.93L1164.1,1614L1164.09,1614.07L1164.09,1614.13L1164.08,1614.2L1164.08,1614.27L1164.08,1614.34L1164.08,1614.41L1164.08,1614.52L1164.08,1614.54L1164.08,1614.64L1164.08,1614.71L1164.08,1614.77L1164.08,1614.83L1164.09,1614.9L1164.09,1614.96L1164.09,1615.03L1164.1,1615.09L1164.11,1615.15L1164.11,1615.22L1164.12,1615.28L1164.13,1615.34L1164.14,1615.4L1164.15,1615.47L1164.16,1615.53L1164.17,1615.59L1164.19,1615.65L1164.2,1615.71L1164.22,1615.78L1164.23,1615.84L1164.25,1615.9L1164.26,1615.96L1164.28,1616.02L1164.3,1616.08L1164.32,1616.14L1164.34,1616.2L1164.36,1616.26L1164.38,1616.32L1164.4,1616.38L1164.42,1616.44L1164.44,1616.5L1164.47,1616.55L1164.49,1616.61L1164.52,1616.67L1164.54,1616.73L1164.57,1616.79L1164.6,1616.84L1164.63,1616.9L1164.65,1616.95L1164.68,1617.01L1164.71,1617.07L1164.75,1617.12L1164.78,1617.18L1164.81,1617.23L1164.84,1617.28L1164.87,1617.34L1164.91,1617.39L1164.94,1617.44L1164.98,1617.5L1165.01,1617.55L1165.05,1617.6L1165.09,1617.65L1165.13,1617.7L1165.17,1617.75L1165.2,1617.8L1165.24,1617.85L1165.29,1617.9L1165.33,1617.95L1165.37,1618L1165.41,1618.04L1165.45,1618.09L1165.5,1618.14L1165.54,1618.18L1165.59,1618.23L1165.63,1618.28L1165.68,1618.32L1165.73,1618.36L1165.77,1618.41L1165.82,1618.45L1165.87,1618.49L1165.92,1618.53L1165.97,1618.57L1166.02,1618.61L1166.07,1618.65L1166.12,1618.69L1166.17,1618.73L1166.22,1618.77L1166.27,1618.8L1166.32,1618.84L1166.38,1618.88L1166.43,1618.91L1166.48,1618.94L1166.54,1618.98L1166.59,1619.01L1166.64,1619.04L1166.7,1619.07L1166.75,1619.11L1166.81,1619.13L1166.86,1619.16L1166.92,1619.19L1166.98,1619.22L1167.03,1619.25L1167.09,1619.28L1167.15,1619.3L1167.21,1619.33L1167.26,1619.35L1167.32,1619.37L1167.38,1619.4L1167.44,1619.42L1167.5,1619.44L1167.56,1619.46L1167.62,1619.48L1167.68,1619.5L1167.74,1619.52L1167.8,1619.54L1167.86,1619.56L1167.92,1619.57L1167.98,1619.59L1168.04,1619.6L1168.11,1619.62L1168.17,1619.63L1168.23,1619.64L1168.29,1619.66L1168.35,1619.67L1168.42,1619.68L1168.48,1619.69L1168.54,1619.7L1168.6,1619.7L1168.67,1619.71L1168.73,1619.72L1168.79,1619.72L1168.86,1619.73L1168.92,1619.73L1168.99,1619.74L1169.05,1619.74L1169.11,1619.74L1169.18,1619.74L1169.28,1619.74L1181.79,1619.74L1181.79,1799L937.456,2172.69L937.341,2172.87L937.234,2173.03L937.129,2173.2L937.024,2173.36L936.92,2173.53L936.816,2173.7L936.714,2173.86L936.612,2174.03L936.51,2174.2L936.41,2174.37L936.31,2174.53L936.212,2174.7L936.114,2174.87L936.017,2175.04L935.92,2175.21L935.825,2175.38L935.73,2175.55L935.636,2175.72L935.542,2175.89L935.45,2176.06L935.358,2176.23L935.267,2176.4L935.177,2176.58L935.087,2176.75L934.999,2176.92L934.911,2177.09L934.824,2177.27L934.737,2177.44L934.652,2177.62L934.567,2177.79L934.483,2177.96L934.4,2178.14L934.318,2178.31L934.236,2178.49L934.155,2178.66L934.075,2178.84L933.996,2179.01L933.917,2179.19L933.84,2179.37L933.762,2179.54L933.686,2179.72L933.611,2179.9L933.536,2180.07L933.462,2180.25L933.389,2180.43L933.317,2180.61L933.245,2180.79L933.174,2180.97L933.104,2181.14L933.035,2181.32L932.967,2181.5L932.899,2181.68L932.832,2181.86L932.766,2182.04L932.701,2182.22L932.636,2182.4L932.572,2182.58L932.51,2182.76L932.447,2182.95L932.386,2183.13L932.325,2183.31L932.265,2183.49L932.206,2183.67L932.148,2183.85L932.09,2184.04L932.033,2184.22L931.978,2184.4L931.922,2184.58L931.868,2184.77L931.814,2184.95L931.761,2185.13L931.709,2185.32L931.658,2185.5L931.607,2185.68L931.557,2185.87L931.509,2186.05L931.46,2186.24L931.413,2186.42L931.366,2186.61L931.32,2186.79L931.275,2186.98L931.231,2187.16L931.187,2187.35L931.145,2187.53L931.103,2187.72L931.061,2187.91L931.021,2188.09L930.981,2188.28L930.943,2188.46L930.905,2188.65L930.867,2188.84L930.831,2189.02L930.795,2189.21L930.76,2189.4L930.726,2189.58L930.693,2189.77L930.66,2189.96L930.628,2190.15L930.597,2190.33L930.567,2190.52L930.537,2190.71L930.509,2190.9L930.481,2191.08L930.454,2191.27L930.427,2191.46L930.402,2191.65L930.377,2191.84L930.353,2192.03L930.33,2192.21L930.307,2192.4L930.286,2192.59L930.265,2192.78L930.245,2192.97L930.226,2193.16L930.207,2193.35L930.189,2193.53L930.172,2193.72L930.156,2193.91L930.141,2194.1L930.126,2194.29L930.113,2194.48L930.1,2194.67L930.087,2194.86L930.076,2195.05L930.065,2195.24L930.055,2195.43L930.046,2195.62L930.038,2195.81L930.031,2196L930.024,2196.19L930.018,2196.38L930.013,2196.57L930.008,2196.76L930.005,2196.95L930.002,2197.14L930,2197.33L929.999,2197.51L929.999,2197.7L929.999,2197.89L930,2198.08L930.002,2198.27L930.005,2198.46L930.008,2198.65L930.013,2198.84L930.018,2199.03L930.023,2199.22L930.03,2199.41L930.038,2199.6L930.046,2199.79L930.055,2199.98L930.065,2200.17L930.075,2200.36L930.087,2200.55L930.099,2200.74L930.112,2200.93L930.126,2201.12L930.14,2201.31L930.156,2201.5L930.172,2201.69L930.189,2201.88L930.206,2202.07L930.225,2202.26L930.244,2202.45L930.264,2202.63L930.285,2202.82L930.307,2203.01L930.329,2203.2L930.352,2203.39L930.376,2203.58L930.401,2203.77L930.427,2203.96L930.453,2204.14L930.48,2204.33L930.508,2204.52L930.537,2204.71L930.567,2204.9L930.597,2205.09L930.628,2205.27L930.66,2205.46L930.693,2205.65L930.726,2205.84L930.761,2206.03L930.796,2206.21L930.831,2206.4L930.868,2206.59L930.906,2206.78L930.944,2206.96L930.983,2207.15L931.023,2207.34L931.063,2207.52L931.105,2207.71L931.147,2207.89L931.19,2208.08L931.234,2208.27L931.278,2208.45L931.324,2208.64L931.37,2208.83L931.417,2209.01L931.464,2209.2L931.513,2209.38L931.563,2209.57L931.613,2209.75L931.664,2209.94L931.715,2210.12L931.768,2210.31L931.821,2210.49L931.875,2210.67L931.93,2210.86L931.986,2211.04L932.042,2211.23L932.099,2211.41L932.157,2211.59L932.216,2211.78L932.276,2211.96L932.336,2212.14L932.398,2212.33L932.46,2212.51L932.523,2212.69L932.586,2212.87L932.651,2213.05L932.716,2213.24L932.782,2213.42L932.849,2213.6L932.917,2213.78L932.985,2213.96L933.054,2214.14L933.124,2214.32L933.195,2214.5L933.266,2214.68L933.339,2214.86L933.412,2215.04L933.486,2215.22L933.561,2215.4L933.636,2215.58L933.713,2215.76L933.79,2215.93L933.868,2216.11L933.946,2216.29L934.026,2216.47L934.107,2216.64L934.188,2216.82L934.27,2217L934.353,2217.18L934.436,2217.35L934.521,2217.53L934.606,2217.7L934.692,2217.88L934.779,2218.06L934.867,2218.23L934.955,2218.41L935.044,2218.58L935.134,2218.76L935.225,2218.93L935.316,2219.1L935.409,2219.28L935.503,2219.45L935.597,2219.62L935.691,2219.8L935.786,2219.97L935.882,2220.14L935.979,2220.31L936.077,2220.48L936.175,2220.65L936.273,2220.82L936.373,2220.99L936.472,2221.16L936.573,2221.32L936.675,2221.49L936.777,2221.66L936.879,2221.82L936.983,2221.99L937.086,2222.15L937.19,2222.32L937.296,2222.48L937.402,2222.64L937.508,2222.81L937.616,2222.97L937.723,2223.13L937.831,2223.29L937.94,2223.45L938.05,2223.61L938.16,2223.77L938.271,2223.93L938.383,2224.09L938.494,2224.25L938.607,2224.41L938.721,2224.56L938.835,2224.72L938.949,2224.88L939.064,2225.03L939.18,2225.18L939.296,2225.34L939.413,2225.49L939.531,2225.64L939.648,2225.8L939.767,2225.95L939.887,2226.1L940.007,2226.25L940.127,2226.4L940.248,2226.55L940.37,2226.7L940.492,2226.85L940.615,2226.99L940.739,2227.14L940.863,2227.29L940.988,2227.44L941.112,2227.58L941.238,2227.72L941.364,2227.87L941.491,2228.01L941.619,2228.16L941.746,2228.3L941.875,2228.44L942.004,2228.58L942.134,2228.72L942.264,2228.86L942.394,2229L942.526,2229.14L942.658,2229.28L942.79,2229.42L942.923,2229.56L943.057,2229.69L943.191,2229.83L943.325,2229.97L943.46,2230.1L943.596,2230.24L943.732,2230.37L943.869,2230.5L944.006,2230.63L944.143,2230.77L944.282,2230.9L944.421,2231.03L944.56,2231.16L944.7,2231.29L944.841,2231.42L944.981,2231.55L945.122,2231.67L945.265,2231.8L945.407,2231.93L945.55,2232.05L945.693,2232.18L945.837,2232.3L945.981,2232.43L946.127,2232.55L946.272,2232.67L946.417,2232.8L946.564,2232.92L946.711,2233.04L946.858,2233.16L947.005,2233.28L947.154,2233.4L947.303,2233.51L947.452,2233.63L947.601,2233.75L947.752,2233.87L947.902,2233.98L948.053,2234.1L948.205,2234.21L948.357,2234.33L948.509,2234.44L948.662,2234.55L948.817,2234.66L948.969,2234.78L949.124,2234.89L949.279,2235L949.433,2235.11L949.59,2235.22L949.746,2235.32L949.902,2235.43L950.058,2235.54L950.216,2235.64L950.375,2235.75L950.532,2235.85L950.691,2235.96L950.849,2236.06L951.01,2236.16L951.169,2236.27L951.33,2236.37L951.491,2236.47L951.651,2236.57L951.813,2236.67L951.976,2236.77L952.138,2236.87L952.301,2236.96L952.464,2237.06L952.627,2237.16L952.791,2237.25L952.956,2237.35L953.121,2237.44L953.286,2237.53L953.451,2237.63L953.618,2237.72L953.784,2237.81L953.95,2237.9L954.118,2237.99L954.286,2238.08L954.453,2238.17L954.621,2238.26L954.79,2238.34L954.959,2238.43L955.128,2238.51L955.298,2238.6L955.469,2238.68L955.638,2238.77L955.809,2238.85L955.981,2238.93L956.152,2239.01L956.324,2239.1L956.496,2239.18L956.669,2239.26L956.841,2239.34L957.014,2239.41L957.189,2239.49L957.363,2239.57L957.537,2239.64L957.711,2239.72L957.886,2239.79L958.061,2239.87L958.237,2239.94L958.413,2240.01L958.589,2240.08L958.766,2240.16L958.942,2240.22L959.118,2240.29L959.298,2240.36L959.476,2240.43L959.652,2240.5L959.831,2240.56L960.011,2240.63L960.188,2240.7L960.368,2240.76L960.549,2240.82L960.727,2240.89L960.907,2240.95L961.089,2241.01L961.27,2241.07L961.449,2241.13L961.631,2241.19L961.814,2241.25L961.996,2241.3L962.177,2241.36L962.359,2241.42L962.542,2241.47L962.726,2241.53L962.908,2241.58L963.093,2241.64L963.277,2241.69L963.459,2241.74L963.643,2241.79L963.83,2241.84L964.015,2241.89L964.198,2241.94L964.384,2241.99L964.571,2242.03L964.756,2242.08L964.941,2242.12L965.128,2242.17L965.314,2242.21L965.502,2242.26L965.689,2242.3L965.877,2242.34L966.064,2242.38L966.251,2242.42L966.439,2242.46L966.628,2242.5L966.816,2242.54L967.004,2242.57L967.193,2242.61L967.383,2242.64L967.572,2242.68L967.762,2242.71L967.951,2242.75L968.141,2242.78L968.332,2242.81L968.52,2242.84L968.713,2242.87L968.904,2242.9L969.094,2242.93L969.285,2242.95L969.477,2242.98L969.668,2243.01L969.859,2243.03L970.052,2243.06L970.245,2243.08L970.437,2243.1L970.629,2243.13L970.821,2243.15L971.016,2243.17L971.208,2243.18L971.402,2243.2L971.595,2243.22L971.787,2243.24L971.983,2243.26L972.177,2243.27L972.37,2243.28L972.565,2243.3L972.76,2243.31L972.955,2243.32L973.149,2243.34L973.344,2243.35L973.54,2243.36L973.733,2243.36L973.93,2243.37L974.126,2243.38L974.32,2243.39L974.516,2243.39L974.713,2243.39L974.911,2243.4L975.106,2243.4L975.302,2243.4L975.499,2243.41L975.708,2243.41L1504.96,2243.41L1505.17,2243.41L1505.37,2243.4L1505.57,2243.4L1505.76,2243.4L1505.96,2243.39L1506.16,2243.39L1506.35,2243.39L1506.55,2243.38L1506.74,2243.37L1506.94,2243.36L1507.13,2243.36L1507.33,2243.35L1507.52,2243.34L1507.72,2243.32L1507.91,2243.31L1508.11,2243.3L1508.3,2243.28L1508.5,2243.27L1508.69,2243.26L1508.89,2243.24L1509.08,2243.22L1509.27,2243.2L1509.47,2243.18L1509.66,2243.17L1509.85,2243.15L1510.05,2243.12L1510.24,2243.1L1510.43,2243.08L1510.62,2243.06L1510.81,2243.03L1511.01,2243.01L1511.2,2242.98L1511.39,2242.95L1511.58,2242.93L1511.77,2242.9L1511.96,2242.87L1512.15,2242.84L1512.34,2242.81L1512.53,2242.78L1512.73,2242.74L1512.91,2242.71L1513.1,2242.68L1513.29,2242.64L1513.48,2242.61L1513.67,2242.57L1513.86,2242.54L1514.05,2242.5L1514.24,2242.46L1514.42,2242.42L1514.61,2242.38L1514.8,2242.34L1514.99,2242.3L1515.17,2242.26L1515.36,2242.21L1515.55,2242.17L1515.73,2242.12L1515.92,2242.08L1516.11,2242.03L1516.29,2241.98L1516.48,2241.94L1516.66,2241.89L1516.85,2241.84L1517.03,2241.79L1517.21,2241.74L1517.4,2241.69L1517.58,2241.63L1517.77,2241.58L1517.95,2241.53L1518.13,2241.47L1518.32,2241.42L1518.5,2241.36L1518.68,2241.3L1518.86,2241.25L1519.05,2241.19L1519.23,2241.13L1519.41,2241.07L1519.59,2241.01L1519.77,2240.95L1519.95,2240.89L1520.13,2240.82L1520.31,2240.76L1520.49,2240.69L1520.67,2240.63L1520.85,2240.56L1521.03,2240.5L1521.2,2240.43L1521.38,2240.36L1521.56,2240.29L1521.74,2240.22L1521.91,2240.15L1522.09,2240.08L1522.27,2240.01L1522.44,2239.94L1522.62,2239.87L1522.79,2239.79L1522.97,2239.72L1523.14,2239.64L1523.31,2239.57L1523.49,2239.49L1523.66,2239.41L1523.84,2239.33L1524.01,2239.25L1524.18,2239.18L1524.35,2239.1L1524.53,2239.01L1524.7,2238.93L1524.87,2238.85L1525.04,2238.77L1525.21,2238.68L1525.38,2238.6L1525.55,2238.51L1525.72,2238.43L1525.89,2238.34L1526.06,2238.25L1526.23,2238.16L1526.39,2238.08L1526.56,2237.99L1526.73,2237.9L1526.89,2237.81L1527.06,2237.72L1527.23,2237.62L1527.39,2237.53L1527.56,2237.44L1527.72,2237.34L1527.89,2237.25L1528.05,2237.15L1528.21,2237.06L1528.38,2236.96L1528.54,2236.86L1528.7,2236.76L1528.87,2236.66L1529.03,2236.57L1529.19,2236.47L1529.35,2236.36L1529.51,2236.26L1529.67,2236.16L1529.83,2236.06L1529.99,2235.95L1530.15,2235.85L1530.3,2235.74L1530.46,2235.64L1530.62,2235.53L1530.78,2235.43L1530.93,2235.32L1531.09,2235.21L1531.25,2235.1L1531.4,2234.99L1531.56,2234.88L1531.71,2234.77L1531.86,2234.66L1532.02,2234.55L1532.17,2234.43L1532.32,2234.32L1532.48,2234.21L1532.63,2234.09L1532.78,2233.98L1532.93,2233.86L1533.08,2233.74L1533.23,2233.63L1533.38,2233.51L1533.53,2233.39L1533.67,2233.27L1533.82,2233.15L1533.97,2233.03L1534.12,2232.91L1534.26,2232.79L1534.41,2232.67L1534.55,2232.55L1534.7,2232.42L1534.84,2232.3L1534.99,2232.17L1535.13,2232.05L1535.27,2231.92L1535.41,2231.79L1535.56,2231.67L1535.7,2231.54L1535.84,2231.41L1535.98,2231.28L1536.12,2231.15L1536.26,2231.02L1536.4,2230.89L1536.54,2230.76L1536.67,2230.63L1536.81,2230.5L1536.95,2230.36L1537.08,2230.23L1537.22,2230.09L1537.35,2229.96L1537.49,2229.82L1537.62,2229.69L1537.76,2229.55L1537.89,2229.41L1538.02,2229.27L1538.15,2229.14L1538.28,2229L1538.41,2228.86L1538.55,2228.72L1538.68,2228.58L1538.8,2228.43L1538.93,2228.29L1539.06,2228.15L1539.19,2228.01L1539.32,2227.86L1539.44,2227.72L1539.57,2227.57L1539.69,2227.43L1539.82,2227.28L1539.94,2227.13L1540.07,2226.99L1540.19,2226.84L1540.31,2226.69L1540.43,2226.54L1540.55,2226.39L1540.67,2226.24L1540.79,2226.09L1540.91,2225.94L1541.03,2225.79L1541.15,2225.64L1541.27,2225.48L1541.38,2225.33L1541.5,2225.18L1541.62,2225.02L1541.73,2224.87L1541.85,2224.71L1541.96,2224.55L1542.07,2224.4L1542.18,2224.24L1542.3,2224.08L1542.41,2223.92L1542.52,2223.76L1542.63,2223.6L1542.74,2223.45L1542.85,2223.28L1542.96,2223.12L1543.06,2222.96L1543.17,2222.8L1543.28,2222.64L1543.38,2222.47L1543.49,2222.31L1543.59,2222.14L1543.7,2221.98L1543.8,2221.81L1543.9,2221.65L1544.01,2221.48L1544.11,2221.31L1544.21,2221.15L1544.31,2220.98L1544.41,2220.81L1544.51,2220.64L1544.6,2220.47L1544.7,2220.3L1544.8,2220.13L1544.89,2219.96L1544.99,2219.78L1545.08,2219.61L1545.18,2219.44L1545.27,2219.27L1545.36,2219.09L1545.45,2218.92L1545.55,2218.74L1545.63,2218.57L1545.72,2218.39L1545.81,2218.22L1545.9,2218.04L1545.99,2217.87L1546.07,2217.69L1546.16,2217.52L1546.24,2217.34L1546.33,2217.16L1546.41,2216.99L1546.49,2216.81L1546.57,2216.63L1546.65,2216.45L1546.73,2216.28L1546.81,2216.1L1546.89,2215.92L1546.97,2215.74L1547.04,2215.56L1547.12,2215.39L1547.19,2215.2L1547.27,2215.03L1547.34,2214.85L1547.41,2214.67L1547.48,2214.49L1547.56,2214.31L1547.62,2214.13L1547.69,2213.95L1547.76,2213.76L1547.83,2213.58L1547.9,2213.4L1547.96,2213.22L1548.03,2213.04L1548.09,2212.86L1548.16,2212.67L1548.22,2212.49L1548.28,2212.31L1548.34,2212.13L1548.4,2211.94L1548.46,2211.76L1548.52,2211.58L1548.58,2211.4L1548.63,2211.21L1548.69,2211.03L1548.75,2210.84L1548.8,2210.66L1548.86,2210.48L1548.91,2210.29L1548.96,2210.11L1549.01,2209.92L1549.07,2209.74L1549.12,2209.55L1549.16,2209.37L1549.21,2209.18L1549.26,2209L1549.31,2208.81L1549.35,2208.63L1549.4,2208.44L1549.44,2208.25L1549.49,2208.07L1549.53,2207.88L1549.57,2207.69L1549.61,2207.51L1549.65,2207.32L1549.69,2207.13L1549.73,2206.95L1549.77,2206.76L1549.81,2206.57L1549.85,2206.39L1549.88,2206.2L1549.92,2206.01L1549.95,2205.82L1549.98,2205.63L1550.02,2205.45L1550.05,2205.26L1550.08,2205.07L1550.11,2204.88L1550.14,2204.69L1550.17,2204.51L1550.19,2204.32L1550.22,2204.13L1550.25,2203.94L1550.27,2203.75L1550.3,2203.56L1550.32,2203.37L1550.35,2203.18L1550.37,2202.99L1550.39,2202.81L1550.41,2202.62L1550.43,2202.43L1550.45,2202.24L1550.47,2202.05L1550.49,2201.86L1550.5,2201.67L1550.52,2201.48L1550.53,2201.29L1550.55,2201.1L1550.56,2200.91L1550.58,2200.72L1550.59,2200.53L1550.6,2200.34L1550.61,2200.15L1550.62,2199.96L1550.63,2199.78L1550.64,2199.59L1550.64,2199.39L1550.65,2199.2L1550.66,2199.01L1550.66,2198.83L1550.66,2198.64L1550.67,2198.45L1550.67,2198.26L1550.67,2198.07L1550.67,2197.88L1550.67,2197.68L1550.67,2197.5L1550.67,2197.31L1550.67,2197.12L1550.67,2196.93L1550.66,2196.74L1550.66,2196.55L1550.65,2196.36L1550.65,2196.17L1550.64,2195.98L1550.63,2195.79L1550.63,2195.6L1550.62,2195.41L1550.61,2195.22L1550.6,2195.03L1550.59,2194.84L1550.57,2194.65L1550.56,2194.46L1550.55,2194.27L1550.53,2194.08L1550.52,2193.89L1550.5,2193.7L1550.48,2193.51L1550.46,2193.33L1550.45,2193.14L1550.43,2192.95L1550.41,2192.76L1550.38,2192.57L1550.36,2192.38L1550.34,2192.19L1550.32,2192.01L1550.29,2191.82L1550.27,2191.63L1550.24,2191.44L1550.22,2191.25L1550.19,2191.07L1550.16,2190.88L1550.13,2190.69L1550.1,2190.5L1550.07,2190.31L1550.04,2190.13L1550.01,2189.94L1549.98,2189.75L1549.94,2189.56L1549.91,2189.38L1549.87,2189.19L1549.84,2189L1549.8,2188.82L1549.76,2188.63L1549.73,2188.44L1549.69,2188.26L1549.65,2188.07L1549.61,2187.89L1549.57,2187.7L1549.52,2187.51L1549.48,2187.33L1549.44,2187.14L1549.39,2186.96L1549.35,2186.77L1549.3,2186.59L1549.26,2186.4L1549.21,2186.22L1549.16,2186.03L1549.11,2185.85L1549.06,2185.66L1549.01,2185.48L1548.96,2185.3L1548.91,2185.11L1548.85,2184.93L1548.8,2184.75L1548.75,2184.56L1548.69,2184.38L1548.63,2184.2L1548.58,2184.01L1548.52,2183.83L1548.46,2183.65L1548.4,2183.47L1548.34,2183.29L1548.28,2183.1L1548.22,2182.92L1548.16,2182.74L1548.09,2182.56L1548.03,2182.38L1547.97,2182.2L1547.9,2182.02L1547.83,2181.84L1547.77,2181.66L1547.7,2181.48L1547.63,2181.3L1547.56,2181.12L1547.49,2180.94L1547.42,2180.77L1547.35,2180.59L1547.28,2180.41L1547.2,2180.23L1547.13,2180.05L1547.05,2179.88L1546.98,2179.7L1546.9,2179.52L1546.83,2179.35L1546.75,2179.17L1546.67,2178.99L1546.59,2178.82L1546.51,2178.64L1546.43,2178.47L1546.35,2178.29L1546.26,2178.12L1546.18,2177.94L1546.1,2177.77L1546.01,2177.59L1545.93,2177.42L1545.84,2177.25L1545.75,2177.07L1545.66,2176.9L1545.58,2176.73L1545.49,2176.55L1545.39,2176.38L1545.3,2176.21L1545.21,2176.04L1545.12,2175.87L1545.03,2175.7L1544.93,2175.53L1544.84,2175.36L1544.74,2175.19L1544.64,2175.02L1544.55,2174.85L1544.45,2174.68L1544.35,2174.51L1544.25,2174.34L1544.15,2174.18L1544.05,2174.01L1543.95,2173.84L1543.84,2173.67L1543.74,2173.51L1543.64,2173.34L1543.53,2173.18L1543.42,2173.01L1543.32,2172.85L1543.2,2172.67L1298.59,1799L1298.59,1619.74L1311.06,1619.74L1311.16,1619.74L1311.22,1619.74L1311.29,1619.74L1311.35,1619.74L1311.42,1619.73L1311.48,1619.73L1311.54,1619.73L1311.61,1619.72L1311.67,1619.71L1311.73,1619.7L1311.79,1619.7L1311.86,1619.69L1311.92,1619.68L1311.98,1619.67L1312.04,1619.66L1312.1,1619.64L1312.17,1619.63L1312.23,1619.62L1312.29,1619.6L1312.35,1619.59L1312.41,1619.57L1312.47,1619.56L1312.53,1619.54L1312.59,1619.52L1312.65,1619.5L1312.71,1619.48L1312.77,1619.46L1312.83,1619.44L1312.89,1619.42L1312.95,1619.4L1313.01,1619.38L1313.07,1619.35L1313.12,1619.33L1313.18,1619.3L1313.24,1619.28L1313.29,1619.25L1313.35,1619.22L1313.41,1619.2L1313.46,1619.17L1313.52,1619.14L1313.58,1619.11L1313.63,1619.08L1313.68,1619.05L1313.74,1619.01L1313.79,1618.98L1313.84,1618.95L1313.9,1618.91L1313.95,1618.88L1314,1618.84L1314.05,1618.81L1314.11,1618.77L1314.16,1618.73L1314.21,1618.7L1314.26,1618.66L1314.31,1618.62L1314.36,1618.58L1314.4,1618.54L1314.45,1618.5L1314.5,1618.46L1314.55,1618.41L1314.6,1618.37L1314.64,1618.33L1314.69,1618.28L1314.73,1618.24L1314.78,1618.19L1314.82,1618.15L1314.87,1618.1L1314.91,1618.05L1314.95,1618.01L1314.99,1617.96L1315.04,1617.91L1315.08,1617.86L1315.12,1617.81L1315.15,1617.76L1315.19,1617.71L1315.23,1617.66L1315.27,1617.61L1315.31,1617.56L1315.34,1617.51L1315.38,1617.45L1315.41,1617.4L1315.44,1617.35L1315.48,1617.3L1315.51,1617.24L1315.54,1617.19L1315.57,1617.13L1315.6,1617.08L1315.63,1617.02L1315.66,1616.97L1315.69,1616.91L1315.72,1616.85L1315.75,1616.8L1315.77,1616.74L1315.8,1616.68L1315.82,1616.63L1315.85,1616.57L1315.87,1616.51L1315.89,1616.45L1315.92,1616.39L1315.94,1616.33L1315.96,1616.28L1315.98,1616.21L1316,1616.16L1316.02,1616.1L1316.04,1616.04L1316.05,1615.98L1316.07,1615.91L1316.09,1615.85L1316.1,1615.79L1316.11,1615.73L1316.13,1615.67L1316.14,1615.61L1316.15,1615.55L1316.16,1615.48L1316.17,1615.42L1316.18,1615.36L1316.19,1615.3L1316.2,1615.23L1316.21,1615.17L1316.21,1615.11L1316.22,1615.05L1316.23,1614.98L1316.23,1614.92L1316.23,1614.86L1316.24,1614.79L1316.24,1614.73L1316.24,1614.66L1316.24,1614.6L1316.24,1614.53L1316.24,1614.45L1316.24,1614.38L1316.23,1614.31L1316.23,1614.25L1316.22,1614.18L1316.22,1614.11L1316.21,1614.04L1316.2,1613.98L1316.2,1613.91L1316.19,1613.84L1316.18,1613.78L1316.17,1613.71L1316.16,1613.65L1316.14,1613.58L1316.13,1613.52L1316.12,1613.46L1316.11,1613.39L1316.09,1613.33L1316.07,1613.27L1316.06,1613.21L1316.04,1613.14L1316.02,1613.08L1316.01,1613.02L1315.99,1612.96L1315.96,1612.9L1315.94,1612.84L1315.92,1612.78L1315.9,1612.72L1315.88,1612.66L1315.85,1612.6L1315.83,1612.54L1315.81,1612.49L1315.78,1612.43L1315.75,1612.37L1315.73,1612.31L1315.7,1612.26L1315.67,1612.2L1315.64,1612.14L1315.61,1612.09L1315.58,1612.03L1315.55,1611.98L1315.52,1611.92L1315.48,1611.87L1315.45,1611.81L1315.41,1611.76L1315.38,1611.7L1315.34,1611.65L1315.31,1611.6L1315.27,1611.55L1315.23,1611.49L1315.2,1611.44L1315.16,1611.39L1315.12,1611.34L1315.08,1611.29L1315.04,1611.24L1315,1611.19L1314.95,1611.14L1314.91,1611.09L1314.87,1611.05L1314.83,1611L1314.78,1610.95L1314.74,1610.91L1314.69,1610.86L1314.65,1610.81L1314.6,1610.77L1314.55,1610.73L1314.51,1610.68L1314.46,1610.64L1314.41,1610.6L1314.36,1610.56L1314.31,1610.51L1314.26,1610.47L1314.21,1610.43L1314.16,1610.39L1314.11,1610.36L1314.06,1610.32L1314.01,1610.28L1313.95,1610.24L1313.9,1610.21L1313.85,1610.17L1313.79,1610.14L1313.74,1610.1L1313.69,1610.07L1313.63,1610.04L1313.58,1610L1313.52,1609.97L1313.46,1609.94L1313.41,1609.91L1313.35,1609.88L1313.3,1609.85L1313.24,1609.83L1313.18,1609.8L1313.12,1609.77L1313.07,1609.75L1313.01,1609.72L1312.95,1609.7L1312.89,1609.67L1312.83,1609.65L1312.77,1609.63L1312.71,1609.61L1312.65,1609.59L1312.59,1609.57L1312.53,1609.55L1312.47,1609.53L1312.41,1609.51L1312.35,1609.49L1312.29,1609.48L1312.22,1609.46L1312.16,1609.45L1312.1,1609.43L1312.03,1609.42L1311.97,1609.41L1311.9,1609.39L1311.84,1609.38L1311.78,1609.37L1311.71,1609.36L1311.64,1609.35L1311.58,1609.35L1311.51,1609.34L1311.44,1609.33L1311.37,1609.33L1311.31,1609.32L1311.24,1609.32L1311.17,1609.32L1311.1,1609.31L1311.03,1609.31L1310.91,1609.31L1169.28,1609.31Z" style="fill:black;"/>
    </g>
    <path id="Content" d="M814.308,938.565C819.529,946.456 819.991,956.578 815.512,964.913C811.032,973.247 802.336,978.446 792.874,978.446C677.585,978.446 385.342,978.446 270.087,978.446C260.627,978.446 251.932,973.25 247.452,964.919C242.971,956.588 243.429,946.469 248.644,938.577C312.9,841.329 472.457,599.853 472.457,599.853L590.231,599.853C590.231,599.853 749.969,841.31 814.308,938.565ZM558.937,914.74C558.937,918.691 558.507,922.224 557.649,925.34C556.79,928.456 555.532,931.088 553.876,933.235C552.22,935.382 550.202,937.019 547.822,938.148C545.442,939.277 542.718,939.841 539.651,939.841C537.001,939.841 534.56,939.375 532.327,938.443C530.094,937.51 528.168,936.044 526.549,934.044C524.929,932.045 523.666,929.487 522.758,926.371C521.85,923.254 521.396,919.525 521.396,915.182C521.396,911.232 521.832,907.698 522.703,904.582C523.574,901.466 524.831,898.835 526.475,896.688C528.119,894.541 530.143,892.903 532.548,891.774C534.952,890.645 537.676,890.081 540.718,890.081C543.368,890.081 545.81,890.547 548.043,891.48C550.275,892.412 552.195,893.872 553.803,895.859C555.41,897.847 556.667,900.399 557.575,903.515C558.483,906.631 558.937,910.373 558.937,914.74ZM549.883,915.035C549.883,914.618 549.871,914.194 549.846,913.765C549.821,913.336 549.809,912.925 549.809,912.532L531.885,925.487C532.67,927.867 533.775,929.634 535.198,930.787C536.621,931.94 538.277,932.517 540.166,932.517C541.54,932.517 542.822,932.161 544.012,931.45C545.202,930.738 546.233,929.665 547.104,928.229C547.975,926.794 548.656,924.978 549.147,922.782C549.637,920.586 549.883,918.004 549.883,915.035ZM530.45,914.888C530.45,915.378 530.45,915.838 530.45,916.268C530.45,916.697 530.474,917.133 530.524,917.574L548.558,904.545C547.699,902.116 546.564,900.319 545.153,899.154C543.743,897.988 542.08,897.405 540.166,897.405C538.792,897.405 537.516,897.755 536.339,898.454C535.161,899.154 534.137,900.227 533.265,901.675C532.394,903.122 531.707,904.938 531.204,907.122C530.701,909.305 530.45,911.894 530.45,914.888ZM531.711,837.915C531.711,843.12 531.145,847.776 530.013,851.883C528.882,855.989 527.225,859.457 525.042,862.286C522.86,865.115 520.2,867.273 517.064,868.761C513.928,870.248 510.339,870.991 506.297,870.991C502.805,870.991 499.588,870.377 496.646,869.149C493.703,867.92 491.165,865.988 489.031,863.353C486.897,860.718 485.232,857.347 484.036,853.241C482.839,849.134 482.241,844.22 482.241,838.497C482.241,833.291 482.815,828.635 483.963,824.529C485.111,820.422 486.768,816.955 488.934,814.125C491.1,811.296 493.768,809.138 496.937,807.651C500.105,806.163 503.694,805.42 507.703,805.42C511.195,805.42 514.413,806.034 517.355,807.263C520.297,808.491 522.827,810.415 524.945,813.034C527.063,815.653 528.72,819.016 529.916,823.122C531.113,827.228 531.711,832.159 531.711,837.915ZM519.78,838.303C519.78,837.753 519.764,837.195 519.731,836.629C519.699,836.064 519.683,835.522 519.683,835.005L496.064,852.077C497.098,855.213 498.553,857.541 500.429,859.061C502.304,860.58 504.486,861.34 506.976,861.34C508.787,861.34 510.476,860.871 512.044,859.934C513.612,858.996 514.97,857.581 516.118,855.69C517.266,853.798 518.163,851.406 518.81,848.512C519.457,845.618 519.78,842.215 519.78,838.303ZM604.082,841.121L604.082,789.15L594.378,789.15L574.735,799.516L578.522,808.935L592.248,801.362L592.248,841.121L576.487,841.121L576.487,851.392L617.666,851.392L617.666,841.121L604.082,841.121ZM494.172,838.109C494.172,838.755 494.172,839.362 494.172,839.927C494.172,840.493 494.204,841.067 494.269,841.649L518.034,824.48C516.902,821.279 515.407,818.911 513.548,817.375C511.689,815.839 509.498,815.071 506.976,815.071C505.165,815.071 503.484,815.532 501.932,816.453C500.38,817.375 499.03,818.79 497.882,820.697C496.734,822.605 495.829,824.997 495.166,827.875C494.503,830.753 494.172,834.164 494.172,838.109ZM476.177,681.917L461.943,681.917L433.128,697.123L438.683,710.941L458.818,699.831L458.818,758.155L435.697,758.155L435.697,773.223L496.104,773.223L496.104,758.155L476.177,758.155L476.177,681.917ZM617.666,716.85C617.666,724.911 616.79,732.121 615.038,738.48C613.285,744.839 610.719,750.209 607.34,754.59C603.96,758.971 599.842,762.313 594.985,764.616C590.128,766.919 584.571,768.071 578.312,768.071C572.905,768.071 567.923,767.12 563.366,765.217C558.81,763.314 554.88,760.323 551.575,756.242C548.271,752.161 545.692,746.942 543.839,740.583C541.987,734.224 541.061,726.614 541.061,717.751C541.061,709.69 541.949,702.48 543.727,696.122C545.504,689.763 548.07,684.393 551.425,680.012C554.78,675.631 558.91,672.289 563.817,669.986C568.724,667.682 574.281,666.531 580.49,666.531C585.897,666.531 590.879,667.482 595.436,669.385C599.992,671.287 603.91,674.266 607.189,678.322C610.469,682.378 613.035,687.585 614.887,693.944C616.74,700.302 617.666,707.938 617.666,716.85ZM599.191,717.451C599.191,716.6 599.166,715.736 599.116,714.86C599.066,713.984 599.041,713.145 599.041,712.344L562.465,738.781C564.067,743.637 566.32,747.242 569.224,749.595C572.128,751.949 575.508,753.125 579.363,753.125C582.167,753.125 584.783,752.399 587.212,750.947C589.64,749.495 591.743,747.305 593.52,744.376C595.298,741.447 596.687,737.742 597.689,733.26C598.69,728.779 599.191,723.509 599.191,717.451ZM559.536,717.151C559.536,718.152 559.536,719.091 559.536,719.967C559.536,720.843 559.586,721.732 559.686,722.633L596.487,696.047C594.735,691.09 592.419,687.422 589.54,685.044C586.661,682.666 583.269,681.476 579.363,681.476C576.56,681.476 573.956,682.19 571.553,683.617C569.149,685.044 567.059,687.234 565.281,690.188C563.504,693.143 562.102,696.848 561.076,701.304C560.049,705.76 559.536,711.042 559.536,717.151Z" style="fill:#c0392b;"/>
    <g id="Pentene" transform="matrix(1,0,0,1,-708.661,-1222.44)">
        <g transform="matrix(1.21152,0,0,1.21152,-264.239,-338.709)">
            <path d="M1372.06,1402.82L1348.66,1466.7L1291.26,1476.92L1271.76,1532.46L1206.04,1543.52L1203.76,1529.96L1261.47,1520.24L1280.94,1464.79L1338.46,1454.54L1359.15,1398.09L1372.06,1402.82Z" style="fill:black;"/>
        </g>
        <g transform="matrix(0.232345,-0.194638,0.194638,0.232345,830.974,1223.68)">
            <path d="M1056.01,1484.77L912.43,1567.67L884.937,1520.05L1028.52,1437.15L1056.01,1484.77Z" style="fill:black;"/>
        </g>
    </g>
    <g id="Benzene" transform="matrix(1,0,0,1,-708.661,-1222.44)">
        <g transform="matrix(0.780775,0,0,0.780775,210.121,210.649)">
            <path d="M1343.26,1395.39L1343.26,1518.52L1236.63,1580.09L1130,1518.52L1130,1395.39L1236.63,1333.83L1343.26,1395.39ZM1151.35,1407.72L1151.35,1506.2L1236.63,1555.44L1321.91,1506.2L1321.91,1407.72L1236.63,1358.48L1151.35,1407.72Z" style="fill:black;"/>
        </g>
        <g transform="matrix(0.303097,0,0,0.303097,795.986,832.699)">
            <path d="M1274.19,1564.08L1130.61,1646.98L1103.12,1599.35L1246.69,1516.46L1274.19,1564.08Z" style="fill:black;"/>
        </g>
        <g transform="matrix(0.303097,0,0,0.303097,795.986,854.507)">
            <path d="M1274.19,1765.56L1246.69,1813.18L1103.12,1730.28L1130.61,1682.66L1274.19,1765.56Z" style="fill:black;"/>
        </g>
        <g transform="matrix(0.151549,0.26249,-0.26249,0.151549,1406.34,719.425)">
            <path d="M1568.42,1595.68L1540.93,1643.3L1397.35,1560.41L1424.85,1512.79L1568.42,1595.68Z" style="fill:black;"/>
        </g>
    </g>
</svg>
